<?xml version="1.0" encoding="UTF-8" standalone="no"?>
<!-- Created with Inkscape (http://www.inkscape.org/) -->

<svg
   xmlns:dc="http://purl.org/dc/elements/1.1/"
   xmlns:cc="http://creativecommons.org/ns#"
   xmlns:rdf="http://www.w3.org/1999/02/22-rdf-syntax-ns#"
   xmlns:svg="http://www.w3.org/2000/svg"
   xmlns="http://www.w3.org/2000/svg"
   xmlns:sodipodi="http://sodipodi.sourceforge.net/DTD/sodipodi-0.dtd"
   xmlns:inkscape="http://www.inkscape.org/namespaces/inkscape"
   width="64.194969mm"
   height="64.182831mm"
   viewBox="0 0 64.194969 64.182831"
   version="1.1"
   id="svg8"
   inkscape:version="0.92.3 (2405546, 2018-03-11)"
   sodipodi:docname="IES-logo.svg">
  <defs
     id="defs2" />
  <sodipodi:namedview
     id="base"
     pagecolor="#ffffff"
     bordercolor="#666666"
     borderopacity="1.0"
     inkscape:pageopacity="0.0"
     inkscape:pageshadow="2"
     inkscape:zoom="2.8"
     inkscape:cx="33.764977"
     inkscape:cy="89.491666"
     inkscape:document-units="mm"
     inkscape:current-layer="layer1"
     showgrid="false"
     fit-margin-top="0.1"
     fit-margin-left="0.1"
     fit-margin-right="0.1"
     fit-margin-bottom="0.1"
     inkscape:window-width="2560"
     inkscape:window-height="1406"
     inkscape:window-x="-11"
     inkscape:window-y="-11"
     inkscape:window-maximized="1" />
  <metadata
     id="metadata5">
    <rdf:RDF>
      <cc:Work
         rdf:about="">
        <dc:format>image/svg+xml</dc:format>
        <dc:type
           rdf:resource="http://purl.org/dc/dcmitype/StillImage" />
        <dc:title></dc:title>
      </cc:Work>
    </rdf:RDF>
  </metadata>
  <g
     inkscape:label="Layer 1"
     inkscape:groupmode="layer"
     id="layer1"
     transform="translate(-0.03944727,-152.46233)">
    <path
       style="fill:#040404;stroke-width:0.08466667"
       d="m 29.333977,216.46257 c -1.55996,-0.17575 -3.19088,-0.44361 -4.40267,-0.72308 -12.51757,-2.88693 -22.1723202,-13.08136 -24.33682019,-25.6972 -0.3985,-2.32273 -0.48585,-3.49888 -0.44645,-6.01145 0.0459,-2.92324 0.26649,-4.62022 0.96122999,-7.39296 1.89957,-7.58124 6.69043,-14.33894 13.2810402,-18.73343 4.16035,-2.77404 8.58866,-4.41797 13.88534,-5.15468 1.52149,-0.21163 5.287491,-0.25359 6.887086,-0.0768 3.04085,0.33619 5.688569,0.95047 8.228612,1.90907 8.303902,3.13384 14.99852,9.63936 18.358641,17.84007 2.870996,7.00696 3.15953,14.85521 0.810393,22.043 -3.175981,9.71772 -10.806293,17.34488 -20.531962,20.52345 -3.289044,1.07494 -6.507977,1.57447 -10.02744,1.55611 -1.1176,-0.006 -2.31775,-0.0428 -2.667,-0.0822 z m 5.515531,-4.05787 c 6.497622,-0.64753 12.433458,-3.45965 17.052448,-8.07864 4.306135,-4.30614 6.975555,-9.60993 7.926865,-15.74964 0.220042,-1.42015 0.307386,-5.04832 0.159573,-6.6285 -0.518404,-5.54196 -2.586377,-10.59728 -6.171596,-15.08695 -0.870938,-1.09065 -2.978505,-3.18626 -4.120485,-4.09711 -5.484769,-4.37467 -11.950905,-6.46322 -19.015356,-6.14191 -5.88166,0.26751 -11.37899,2.3613 -16.12131,6.14019 -1.18871,0.94722 -3.26401,3.021 -4.2247,4.22161 -3.1152502,3.89321 -5.1291302,8.48926 -5.8987502,13.462 -0.26049,1.68308 -0.32562,5.40571 -0.12517,7.15433 0.46401,4.0478 1.7147,7.79082 3.75535,11.23889 1.9743702,3.33609 4.7280402,6.30922 7.9791602,8.61508 3.78165,2.68215 8.54415,4.46463 13.20377,4.94183 1.03434,0.10593 4.569917,0.1115 5.600201,0.009 z m -3.779861,-1.57835 c -6.07049,-0.29929 -11.48198,-2.4133 -16.07155,-6.27838 -0.42008,-0.35377 -0.71485,-0.66102 -0.67367,-0.7022 0.0403,-0.0403 2.81477,-0.083 6.16555,-0.095 l 6.09233,-0.0217 v -0.50764 -0.50764 l -0.508,-0.0594 c -1.29924,-0.15181 -1.96626,-0.39521 -2.54501,-0.92868 -0.44396,-0.40924 -0.73727,-0.935 -0.94957,-1.70214 -0.12486,-0.45118 -0.14341,-0.87672 -0.12767,-2.92899 0.0101,-1.32061 0.0413,-2.47314 0.0692,-2.56116 0.0494,-0.15568 0.30489,-0.16005 9.34806,-0.16005 7.337578,0 9.314566,-0.0223 9.37936,-0.10584 0.04515,-0.0582 0.24815,-1.35781 0.451103,-2.888 0.221886,-1.67295 0.407235,-2.79684 0.464896,-2.81897 0.183341,-0.0703 4.235931,3.87194 4.951624,4.81685 1.321863,1.74524 1.759853,3.14682 1.667822,5.33708 -0.101248,2.40958 -0.939541,4.4088 -2.514159,5.99593 -2.444845,2.46427 -6.271961,3.34119 -9.696984,2.22189 -3.237114,-1.05789 -5.273862,-3.63397 -5.710142,-7.22219 -0.0536,-0.44045 -0.11397,-0.81742 -0.13425,-0.8377 -0.0413,-0.0413 -0.67102,0.37912 -0.79024,0.52764 -0.0422,0.0526 -0.61632,1.59773 -1.27577,3.43362 l -1.19901,3.33798 0.3101,0.45024 c 1.27827,1.85599 3.73033,3.30476 6.284794,3.71329 1.555873,0.24883 1.437282,0.21971 1.224297,0.30065 -0.211444,0.0804 -2.730047,0.25547 -3.324111,0.23112 -0.20955,-0.009 -0.6096,-0.0269 -0.889,-0.0407 z m 17.670191,-6.10243 c 2.281857,-2.63926 3.672721,-5.29611 4.177458,-7.97984 0.230552,-1.22586 0.217699,-2.98448 -0.02806,-3.83884 -0.568738,-1.9772 -1.707454,-3.39095 -4.88626,-6.06642 -2.622362,-2.20713 -3.665638,-3.35213 -4.359372,-4.78441 -0.225549,-0.46566 -0.47594,-1.11336 -0.556425,-1.43933 -0.191374,-0.77508 -0.190732,-2.38207 0.0013,-3.28797 0.772368,-3.64334 3.067008,-5.89168 6.018529,-5.89711 2.105681,-0.004 3.224721,1.02482 3.801938,3.49497 0.111058,0.47526 0.225946,1.00699 0.255307,1.18161 0.03044,0.18107 0.101794,0.3175 0.166043,0.3175 0.06196,0 0.733623,-0.49683 1.492578,-1.10406 1.125787,-0.90073 1.399962,-1.08395 1.488756,-0.99483 0.1513,0.15184 0.728018,1.71361 1.076689,2.91571 2.148834,7.40843 0.888735,15.43825 -3.43925,21.91618 -1.184695,1.7732 -2.871551,3.70201 -4.418856,5.05268 -0.698916,0.61009 -1.097521,0.86939 -0.790391,0.51416 z M 12.517177,202.1475 c -0.98844,-1.02629 -2.31186,-2.80768 -3.1557802,-4.24783 -2.20479,-3.76245 -3.39337,-7.93563 -3.53635,-12.41626 -0.2092,-6.55602 1.8839,-12.7883 5.9713802,-17.78 0.91731,-1.12023 2.69712,-2.8959 2.86856,-2.86189 0.18481,0.0367 0.5818,0.78103 0.75892,1.42293 0.14346,0.51997 0.15174,1.44572 0.15174,16.9753 0,15.32282 -0.01,16.46374 -0.14713,16.99759 -0.35259,1.37145 -1.06911,2.14486 -2.13887,2.30871 -0.32368,0.0496 -0.35787,0.0319 -0.77247,-0.39855 z m 10.01422,-8.57485 c -0.0305,-0.0794 -0.0554,-5.24398 -0.0554,-11.47678 0,-12.75168 -0.0667,-11.59846 0.67086,-11.59846 0.70053,0 1.21992,0.49276 1.51155,1.43402 0.13459,0.43441 0.14592,1.23703 0.14592,10.33465 v 9.86367 l -0.254,0.508 c -0.31332,0.62664 -0.79618,0.95884 -1.49913,1.03139 -0.38746,0.04 -0.47354,0.024 -0.51978,-0.0965 z m 8.75367,-0.78055 c -0.36771,-0.1942 -0.50584,-0.32929 -0.67733,-0.66245 l -0.21543,-0.4185 v -4.53203 -4.53204 l 0.52027,0.008 c 1.03608,0.0153 2.0421,0.44829 2.729032,1.17462 0.729164,0.77098 1.155925,1.82992 1.413421,3.50719 l 0.14444,0.94086 h 0.284588 0.284587 v -6.39234 -6.39233 h -0.249003 c -0.136951,0 -0.268685,0.0318 -0.29274,0.0708 -0.02406,0.0389 -0.10307,0.47035 -0.175588,0.95874 -0.391504,2.63664 -1.240125,3.96849 -2.875377,4.51269 -0.4773,0.15884 -1.53541,0.30851 -1.70931,0.24178 -0.0972,-0.0373 -0.11665,-0.86686 -0.11665,-4.98709 v -4.94233 l 0.22889,-0.0574 c 0.12588,-0.0316 1.18316,-0.0153 2.349496,0.0362 3.16248,0.13966 4.112227,0.42514 5.272565,1.58484 0.719907,0.71952 1.236792,1.6956 1.59139,3.00517 0.119786,0.44238 0.277231,0.92466 0.349876,1.07173 0.125728,0.25454 0.119766,0.29935 -0.123906,0.93134 -1.299602,3.37064 -0.965837,6.48533 0.972311,9.07359 l 0.464513,0.62032 -0.266353,0.66077 c -0.883115,2.1908 -2.345546,3.6147 -4.339834,4.22547 -1.010593,0.30951 -2.017737,0.44829 -3.577946,0.49304 l -1.524002,0.0437 z m 9.434077,-16.72785 c -0.02174,-0.0582 -0.04912,-1.45839 -0.06084,-3.1115 l -0.02132,-3.00567 -9.036657,-0.0215 -9.03665,-0.0216 -0.0549,-0.21863 c -0.0803,-0.31984 0.0445,-2.60938 0.17785,-3.26261 0.30344,-1.48676 1.1552,-2.22487 2.77291,-2.40295 0.24498,-0.027 0.60735,-0.0688 0.80525,-0.0929 l 0.35984,-0.0439 v -0.50281 -0.50282 l -4.5085,-0.006 c -2.47968,-0.003 -4.57766,-0.0332 -4.66219,-0.0665 -0.14848,-0.0585 -0.14848,-0.065 0,-0.19125 0.26592,-0.22606 1.22854,-0.80022 2.23327,-1.33205 8.06802,-4.27059 17.976245,-4.00264 25.883173,0.69997 1.821555,1.08337 3.23385,2.17265 4.83527,3.72938 0.990673,0.96302 2.380971,2.51816 2.380971,2.66326 0,0.0366 -0.523875,0.0687 -1.164167,0.0713 -0.963489,0.004 -1.307386,0.0419 -1.995016,0.22044 -3.173737,0.82414 -6.244263,3.31362 -8.362569,6.78011 -0.243339,0.3982 -0.456788,0.72401 -0.474331,0.72401 -0.01754,0 -0.04968,-0.0476 -0.07142,-0.10583 z"
       id="path4529"
       inkscape:connector-curvature="0"
       inkscape:export-xdpi="599.83917"
       inkscape:export-ydpi="599.83917" />
  </g>
</svg>
